<?xml version="1.0" encoding="UTF-8" standalone="no"?>
<!-- Created with Inkscape (http://www.inkscape.org/) -->

<svg
   xmlns:dc="http://purl.org/dc/elements/1.1/"
   xmlns:cc="http://creativecommons.org/ns#"
   xmlns:rdf="http://www.w3.org/1999/02/22-rdf-syntax-ns#"
   xmlns:svg="http://www.w3.org/2000/svg"
   xmlns="http://www.w3.org/2000/svg"
   xmlns:xlink="http://www.w3.org/1999/xlink"
   xmlns:sodipodi="http://sodipodi.sourceforge.net/DTD/sodipodi-0.dtd"
   xmlns:inkscape="http://www.inkscape.org/namespaces/inkscape"
   width="96"
   height="96"
   id="svg2408"
   sodipodi:version="0.32"
   inkscape:version="0.91 r13725"
   version="1.0"
   sodipodi:docname="Magnifier.svg"
   inkscape:output_extension="org.inkscape.output.svg.inkscape">
  <defs
     id="defs2410">
    <linearGradient
       id="linearGradient3637">
      <stop
         style="stop-color:#f0f0f0;stop-opacity:1;"
         offset="0"
         id="stop3639" />
      <stop
         style="stop-color:#aaaaaa;stop-opacity:1;"
         offset="1"
         id="stop3641" />
    </linearGradient>
    <linearGradient
       id="ButtonShadow"
       gradientTransform="scale(1.0058652,0.994169)"
       x1="45.447727"
       y1="92.539597"
       x2="45.447727"
       y2="7.0165396"
       gradientUnits="userSpaceOnUse">
      <stop
         style="stop-color:#000000;stop-opacity:1;"
         offset="0"
         id="stop3750" />
      <stop
         style="stop-color:#000000;stop-opacity:0.58823532;"
         offset="1"
         id="stop3752" />
    </linearGradient>
    <linearGradient
       id="linearGradient3700">
      <stop
         style="stop-color:#2276c5;stop-opacity:1;"
         offset="0"
         id="stop3702" />
      <stop
         style="stop-color:#68baf4;stop-opacity:1;"
         offset="1"
         id="stop3704" />
    </linearGradient>
    <clipPath
       clipPathUnits="userSpaceOnUse"
       id="clipPath3613">
      <rect
         ry="6"
         rx="6"
         y="6"
         x="6"
         height="84"
         width="84"
         id="rect3615"
         style="fill:#ffffff;fill-opacity:1;fill-rule:nonzero;stroke:none" />
    </clipPath>
    <clipPath
       clipPathUnits="userSpaceOnUse"
       id="clipPath3625">
      <path
         style="fill:#ffffff;fill-opacity:1;stroke:none"
         d="M 0,0 0,96 96,96 96,0 0,0 z m 12,6 72,0 c 3.324,0 6,2.676 6,6 l 0,72 c 0,3.324 -2.676,6 -6,6 L 12,90 C 8.676,90 6,87.324 6,84 L 6,12 C 6,8.676 8.676,6 12,6 z"
         id="path3627" />
    </clipPath>
    <clipPath
       clipPathUnits="userSpaceOnUse"
       id="clipPath3649">
      <rect
         style="fill:#ffffff;fill-opacity:1;fill-rule:nonzero;stroke:none"
         id="rect3651"
         width="76"
         height="76"
         x="10"
         y="10"
         rx="4"
         ry="4" />
    </clipPath>
    <linearGradient
       id="ButtonShadow-0"
       gradientTransform="matrix(1.0058652,0,0,0.994169,100,0)"
       x1="45.447727"
       y1="92.539597"
       x2="45.447727"
       y2="7.0165396"
       gradientUnits="userSpaceOnUse">
      <stop
         style="stop-color:#000000;stop-opacity:1;"
         offset="0"
         id="stop3750-8" />
      <stop
         style="stop-color:#000000;stop-opacity:0.58823532;"
         offset="1"
         id="stop3752-5" />
    </linearGradient>
    <linearGradient
       y2="11.015625"
       x2="19"
       y1="11.015625"
       x1="11"
       gradientTransform="matrix(0,-3.0000004,2.9652505,0,33.335916,111.00001)"
       gradientUnits="userSpaceOnUse"
       id="linearGradient2927-4"
       xlink:href="#linearGradient3183-0"
       inkscape:collect="always" />
    <linearGradient
       id="linearGradient3183-0">
      <stop
         style="stop-color:#c80000;stop-opacity:1;"
         offset="0"
         id="stop3185-9" />
      <stop
         style="stop-color:#f3604d;stop-opacity:1;"
         offset="1"
         id="stop3187-6" />
    </linearGradient>
    <linearGradient
       id="StandardGradient"
       gradientTransform="scale(1.0003344,0.9996657)"
       x1="10.558969"
       y1="3.0148761"
       x2="10.558969"
       y2="19.285688"
       gradientUnits="userSpaceOnUse">
      <stop
         id="stop3309"
         offset="0"
         style="stop-color:#000000;stop-opacity:0.86274511;" />
      <stop
         style="stop-color:#000000;stop-opacity:0.47058824;"
         offset="1"
         id="stop3311" />
    </linearGradient>
    <linearGradient
       inkscape:collect="always"
       xlink:href="#linearGradient3637"
       id="linearGradient3878"
       gradientUnits="userSpaceOnUse"
       gradientTransform="matrix(3.272827,0,0,3.2706392,11.508544,11.351683)"
       x1="10.558969"
       y1="3.0148761"
       x2="10.558969"
       y2="19.285688" />
    <linearGradient
       inkscape:collect="always"
       xlink:href="#linearGradient3637"
       id="linearGradient3935"
       gradientUnits="userSpaceOnUse"
       gradientTransform="matrix(3.272827,0,0,3.2706392,11.508544,12.351683)"
       x1="10.558969"
       y1="3.0148761"
       x2="10.558969"
       y2="19.285688" />
    <linearGradient
       inkscape:collect="always"
       xlink:href="#linearGradient3637"
       id="linearGradient3937"
       gradientUnits="userSpaceOnUse"
       gradientTransform="matrix(3.272827,0,0,3.2706392,11.508544,11.351683)"
       x1="10.558969"
       y1="3.0148761"
       x2="10.558969"
       y2="19.285688" />
    <linearGradient
       inkscape:collect="always"
       xlink:href="#linearGradient3637"
       id="linearGradient3944"
       gradientUnits="userSpaceOnUse"
       gradientTransform="matrix(3.272827,0,0,3.2706392,11.508544,10.351683)"
       x1="10.558969"
       y1="3.0148761"
       x2="10.558969"
       y2="19.285688" />
    <linearGradient
       inkscape:collect="always"
       xlink:href="#linearGradient3637"
       id="linearGradient3946"
       gradientUnits="userSpaceOnUse"
       gradientTransform="matrix(3.272827,0,0,3.2706392,11.508544,11.351683)"
       x1="10.558969"
       y1="3.0148761"
       x2="10.558969"
       y2="19.285688" />
  </defs>
  <sodipodi:namedview
     id="base"
     pagecolor="#ffffff"
     bordercolor="#666666"
     borderopacity="1.0"
     inkscape:pageopacity="0.0"
     inkscape:pageshadow="2"
     inkscape:zoom="7.5575672"
     inkscape:cx="42.781701"
     inkscape:cy="31.927839"
     inkscape:document-units="px"
     inkscape:current-layer="layer6"
     showgrid="true"
     showborder="true"
     inkscape:showpageshadow="false"
     inkscape:window-width="1366"
     inkscape:window-height="724"
     inkscape:window-x="0"
     inkscape:window-y="0"
     inkscape:window-maximized="1"
     inkscape:snap-global="true">
    <inkscape:grid
       type="xygrid"
       id="grid3732"
       visible="true"
       enabled="true" />
  </sodipodi:namedview>
  <metadata
     id="metadata2413">
    <rdf:RDF>
      <cc:Work
         rdf:about="">
        <dc:format>image/svg+xml</dc:format>
        <dc:type
           rdf:resource="http://purl.org/dc/dcmitype/StillImage" />
        <dc:title></dc:title>
      </cc:Work>
    </rdf:RDF>
  </metadata>
  <g
     inkscape:groupmode="layer"
     id="layer6"
     inkscape:label="Symbol"
     style="display:inline">
    <g
       id="g3429">
      <path
         sodipodi:nodetypes="ccccccccccccccccc"
         inkscape:connector-curvature="0"
         id="path3959"
         d="m 40.9375,19.96875 c -10.332965,-0.154708 -19.980508,8.01306 -21.508215,18.239007 -1.768699,9.459717 3.602469,19.62221 12.41366,23.484953 6.156209,2.894854 13.527105,2.445613 19.524549,-0.62984 3.699853,-2.023184 3.426863,3.120612 5.644614,4.603414 3.446624,3.395743 6.95445,6.931816 10.362892,10.239966 2.208415,2.249746 6.368213,1.89995 8.139744,-0.793369 1.95528,-2.446423 1.01607,-6.017712 -1.267757,-7.863808 C 70.720618,63.801335 67.327,60.207928 63.709565,56.860079 61.589966,55.857954 58.784903,54.735186 60.4375,51.90625 63.643877,45.497048 63.651521,37.53254 60.06225,31.268304 56.30001,24.438324 48.755714,19.917566 40.9375,19.96875 Z m 0,9.375 C 47.878463,29.139086 54.043267,35.591491 53.483647,42.521243 53.321097,49.468104 46.545515,55.277504 39.653778,54.37268 32.724923,53.857557 27.303301,46.787682 28.550134,39.961744 29.351578,33.984078 34.905865,29.223908 40.9375,29.34375 Z"
         style="display:inline;opacity:0.1;fill:#000000;fill-opacity:1;stroke:none" />
      <path
         sodipodi:nodetypes="sssccsssccccccssssscccccssscsssssss"
         inkscape:connector-curvature="0"
         id="path3955"
         d="m 40.9375,21.0625 c -5.316931,0 -10.622829,2.122828 -14.65625,6.15625 -8.079248,8.079249 -8.079249,21.202004 0,29.28125 6.396316,6.396315 15.906622,7.70342 23.625,3.96875 0.09505,-0.04599 0.326717,-0.135721 0.5625,-0.25 0.532664,-0.210366 1.49497,-0.54798 2.40625,-0.625 0.91128,-0.07702 1.653363,0.09086 2.125,0.5625 0.37127,0.37127 0.527384,0.798592 0.8125,1.59375 0.285116,0.795158 0.715792,1.872041 1.75,2.90625 L 68,75 c 0.03015,0.02242 0.06145,0.0433 0.09375,0.0625 0.0081,0.0069 0.0036,0.01099 0.03125,0.03125 0.01308,0.01165 0.01512,0.01717 0.03125,0.03125 0.0086,0.0054 0.02132,-0.0061 0.03125,0 0.08337,0.0723 0.196175,0.204342 0.34375,0.3125 0.310415,0.227505 0.744225,0.49204 1.3125,0.6875 1.136551,0.390919 2.889863,0.297635 4.3125,-1.125 1.428806,-1.428806 1.536949,-3.18434 1.15625,-4.34375 -0.19035,-0.579705 -0.457146,-1.050109 -0.6875,-1.375 -0.115177,-0.162445 -0.232709,-0.281808 -0.3125,-0.375 -0.03351,-0.03914 -0.07098,-0.0686 -0.09375,-0.09375 -0.0102,-0.01063 -0.02062,-0.02105 -0.03125,-0.03125 -0.0097,-0.02116 -0.02017,-0.04201 -0.03125,-0.0625 L 63.8125,58.40625 C 62.787298,57.381048 61.764022,56.942029 61,56.65625 60.235978,56.370471 59.822545,56.228794 59.4375,55.84375 58.867061,55.27331 58.769828,54.195408 58.96875,53.0625 59.167672,51.929592 59.648351,50.860611 59.65625,50.84375 63.393119,43.120825 62.018658,33.612408 55.625,27.21875 51.589476,23.183225 46.254432,21.0625 40.9375,21.0625 Z m 0,7.1875 c 7.535503,0 13.65625,6.092299 13.65625,13.625 0,7.532703 -6.123548,13.65625 -13.65625,13.65625 -7.532703,0 -13.625,-6.120743 -13.625,-13.65625 0,-7.535506 6.089494,-13.625 13.625,-13.625 z"
         style="display:inline;opacity:0.15;fill:#000000;fill-opacity:1;stroke:none" />
      <path
         style="display:inline;opacity:0.3;fill:#000000;fill-opacity:1;stroke:none"
         d="m 40.9375,22.15625 c -5.024844,0 -10.043902,2.012651 -13.875,5.84375 -7.662194,7.662195 -7.662195,20.056558 0,27.71875 6.065905,6.065904 15.062155,7.288446 22.375,3.75 0.192443,-0.09311 0.435065,-0.181495 0.625,-0.28125 1.187096,-0.468823 4.141857,-1.389392 5.71875,0.1875 1.169626,1.169626 0.773272,2.710771 2.5625,4.5 l 10.4375,10.34375 c 0.01242,-0.01244 2.254863,2.338884 4.59375,0 2.347919,-2.34792 0.03413,-4.675755 0,-4.71875 L 63.03125,59.1875 c -1.789229,-1.789229 -3.205376,-1.392879 -4.375,-2.5625 -1.928265,-1.928268 -0.115198,-6.004099 0,-6.25 C 62.194695,43.062154 60.909654,34.065904 54.84375,28 51.012652,24.168901 45.962345,22.15625 40.9375,22.15625 Z m 0,5 c 8.126981,0 14.75,6.591766 14.75,14.71875 0,8.126985 -6.623016,14.75 -14.75,14.75 -8.126985,0 -14.71875,-6.623015 -14.71875,-14.75 0,-8.126984 6.591766,-14.71875 14.71875,-14.71875 z"
         id="path3949"
         inkscape:connector-curvature="0"
         sodipodi:nodetypes="sssccsccsccscsssssss" />
      <path
         sodipodi:nodetypes="sssccsccsccscsssssss"
         inkscape:connector-curvature="0"
         id="path3102"
         d="m 40.9375,21.15625 c -5.024844,0 -10.043902,2.012651 -13.875,5.84375 -7.662194,7.662195 -7.662195,20.056558 0,27.71875 6.065905,6.065904 15.062155,7.288446 22.375,3.75 0.192443,-0.09311 0.435065,-0.181495 0.625,-0.28125 1.187096,-0.468823 4.141857,-1.389392 5.71875,0.1875 1.169626,1.169626 0.773272,2.710771 2.5625,4.5 l 10.4375,10.34375 c 0.01242,-0.01244 2.254863,2.338884 4.59375,0 2.347919,-2.34792 0.03413,-4.675755 0,-4.71875 L 63.03125,58.1875 c -1.789229,-1.789229 -3.205376,-1.392879 -4.375,-2.5625 -1.928265,-1.928268 -0.115198,-6.004099 0,-6.25 C 62.194695,42.062154 60.909654,33.065904 54.84375,27 51.012652,23.168901 45.962345,21.15625 40.9375,21.15625 Z m 0,5 c 8.126981,0 14.75,6.591766 14.75,14.71875 0,8.126985 -6.623016,14.75 -14.75,14.75 -8.126985,0 -14.71875,-6.623015 -14.71875,-14.75 0,-8.126984 6.591766,-14.71875 14.71875,-14.71875 z"
         style="display:inline;fill:url(#linearGradient3878);fill-opacity:1;stroke:none" />
      <path
         sodipodi:nodetypes="sscssscsscssscsccscccccsc"
         inkscape:connector-curvature="0"
         id="path3931"
         d="m 40.9375,21.15625 c -5.024844,0 -10.043902,2.012651 -13.875,5.84375 -3.95888,3.95888 -5.850795,9.194979 -5.71875,14.375 0.121568,-4.848402 2.013345,-9.669594 5.71875,-13.375 3.831098,-3.831099 8.850156,-5.84375 13.875,-5.84375 5.024845,0 10.075152,2.012651 13.90625,5.84375 3.704459,3.704459 5.62136,8.504359 5.75,13.34375 C 60.721225,36.16902 58.804257,30.960507 54.84375,27 51.012652,23.168901 45.962345,21.15625 40.9375,21.15625 Z M 26.25,41.375 c -0.0057,0.168078 -0.03125,0.330541 -0.03125,0.5 0,8.126985 6.591765,14.75 14.71875,14.75 8.126984,0 14.75,-6.623015 14.75,-14.75 0,-0.169459 -0.02554,-0.331922 -0.03125,-0.5 -0.26826,7.893935 -6.761225,14.25 -14.71875,14.25 -7.957526,0 -14.42049,-6.356065 -14.6875,-14.25 z m 31.5625,12.3125 c -0.07578,1.07246 0.07515,2.168899 0.84375,2.9375 1.169624,1.169621 2.585771,0.773271 4.375,2.5625 L 73.375,69.5 c 0.02004,0.02524 0.81322,0.857787 1,2 0.338175,-1.647248 -0.974402,-2.967754 -1,-3 L 63.03125,58.1875 c -1.789229,-1.789229 -3.205376,-1.392879 -4.375,-2.5625 -0.527084,-0.527085 -0.764667,-1.211575 -0.84375,-1.9375 z"
         style="display:inline;opacity:0.75;fill:#ffffff;fill-opacity:1;stroke:none" />
      <path
         sodipodi:nodetypes="sscscssccccccsccsccscsccsccsc"
         inkscape:connector-curvature="0"
         id="path3940"
         d="m 40.9375,25.15625 c -8.126984,0 -14.71875,6.591766 -14.71875,14.71875 0,0.169459 0.02556,0.331895 0.03125,0.5 0.26701,-7.892685 6.729975,-14.21875 14.6875,-14.21875 7.957522,0 14.45049,6.326065 14.71875,14.21875 0.0057,-0.168105 0.03125,-0.330541 0.03125,-0.5 0,-8.126984 -6.623019,-14.71875 -14.75,-14.71875 z m 19.65625,15.1875 c -0.06777,2.750876 -0.709351,5.493055 -1.9375,8.03125 -0.08371,0.178685 -1.053981,2.382728 -0.84375,4.3125 0.11434,-1.618131 0.774469,-3.164614 0.84375,-3.3125 1.37751,-2.846877 2.019503,-5.946331 1.9375,-9.03125 z m -39.25,0.03125 c -0.129816,5.177329 1.761961,10.386962 5.71875,14.34375 6.065905,6.065904 15.062155,7.288446 22.375,3.75 0.192443,-0.09311 0.435065,-0.181495 0.625,-0.28125 1.187096,-0.468823 4.141857,-1.389392 5.71875,0.1875 1.169626,1.169626 0.773272,2.710771 2.5625,4.5 l 10.4375,10.34375 c 0.01242,-0.01244 2.254863,2.338884 4.59375,0 0.969324,-0.969325 1.13133,-1.915632 1,-2.71875 -0.112725,0.549083 -0.41302,1.13177 -1,1.71875 -2.338887,2.338884 -4.58133,-0.01244 -4.59375,0 L 58.34375,61.875 c -1.789228,-1.789229 -1.392874,-3.330374 -2.5625,-4.5 -1.576893,-1.576892 -4.531654,-0.656323 -5.71875,-0.1875 -0.189935,0.09976 -0.432557,0.18814 -0.625,0.28125 -7.312845,3.538446 -16.309095,2.315904 -22.375,-3.75 C 23.359185,50.015437 21.467271,45.220625 21.34375,40.375 Z"
         style="display:inline;opacity:0.15;fill:#000000;fill-opacity:1;stroke:none" />
    </g>
  </g>
</svg>
